<?xml version="1.0" encoding="UTF-8" standalone="no"?>
<!-- Generator: Adobe Illustrator 17.0.0, SVG Export Plug-In . SVG Version: 6.00 Build 0)  -->

<svg
   xmlns:dc="http://purl.org/dc/elements/1.1/"
   xmlns:cc="http://creativecommons.org/ns#"
   xmlns:rdf="http://www.w3.org/1999/02/22-rdf-syntax-ns#"
   xmlns:svg="http://www.w3.org/2000/svg"
   xmlns="http://www.w3.org/2000/svg"
   xmlns:sodipodi="http://sodipodi.sourceforge.net/DTD/sodipodi-0.dtd"
   xmlns:inkscape="http://www.inkscape.org/namespaces/inkscape"
   version="1.1"
   id="Calque_1"
   x="0px"
   y="0px"
   width="500px"
   height="500px"
   viewBox="0 0 500 500"
   enable-background="new 0 0 500 500"
   xml:space="preserve"
   inkscape:version="0.91 r13725"
   sodipodi:docname="logo_menu.svg"
   inkscape:export-filename="/home/cp/dev/arelv5/src/main/webapp/assets/js/event/arel.png"
   inkscape:export-xdpi="106.44849"
   inkscape:export-ydpi="106.44849"><defs
     id="defs21" /><sodipodi:namedview
     pagecolor="#ffffff"
     bordercolor="#666666"
     borderopacity="1"
     objecttolerance="10"
     gridtolerance="10"
     guidetolerance="10"
     inkscape:pageopacity="0"
     inkscape:pageshadow="2"
     inkscape:window-width="2560"
     inkscape:window-height="1377"
     id="namedview19"
     showgrid="false"
     inkscape:zoom="1.425"
     inkscape:cx="-76.74315"
     inkscape:cy="257.65725"
     inkscape:window-x="-8"
     inkscape:window-y="-8"
     inkscape:window-maximized="1"
     inkscape:current-layer="Calque_1" /><g
     id="g3"
     transform="matrix(3.0857278,0,0,3.0857278,-524.09045,-524.57354)"
     style="fill:#ffffff;fill-opacity:1"><g
       id="g5"
       style="fill:#ffffff;fill-opacity:1"><path
         d="m 248.908,175.052 c 0,8.375 0.723,16.239 -0.129,23.929 -3.175,28.672 -13.566,54.169 -34.751,74.502 -6.385,6.128 -13.407,11.458 -20.995,16.06 -4.076,2.472 -7.117,1.765 -9.822,-2.049 -3.769,-5.315 -7.544,-10.608 -9.219,-17.038 -1.199,-4.604 -0.057,-7.712 4.644,-10.091 34.932,-17.68 59.056,-44.376 68.388,-83.171 0.113,-0.469 0.366,-0.908 0.592,-1.342 0.061,-0.119 0.258,-0.17 1.292,-0.8 z"
         id="path7"
         inkscape:connector-curvature="0"
         style="fill:#ffffff;fill-opacity:1" /><path
         d="m 321.96,283.899 c -11.653,-5.132 -21.952,-12.412 -31.352,-20.904 -20.982,-18.957 -34.364,-42.134 -38.226,-70.44 -0.747,-5.471 -0.572,-10.96 -0.635,-16.449 -0.031,-2.725 1.16,-4.505 3.878,-4.969 7.432,-1.267 14.873,-1.855 22.264,0.289 4.264,1.237 6.023,3.794 5.737,8.504 -2.355,38.849 8.56,72.946 36.704,100.707 0.808,0.797 1.991,1.216 2.999,1.811 -0.456,0.483 -0.912,0.967 -1.369,1.451 z"
         id="path9"
         inkscape:connector-curvature="0"
         style="fill:#ffffff;fill-opacity:1" /><path
         d="m 192.092,293.085 c 7.989,-5.997 16.531,-10.317 25.476,-13.857 34.23,-13.547 67.828,-13.12 100.574,4.777 5.411,2.957 5.929,4.41 3.359,9.951 -2.448,5.279 -4.815,10.632 -8.87,14.961 -4.518,4.822 -7.047,5.149 -12.499,1.491 -22.174,-14.879 -46.564,-22.607 -73.301,-22.353 -10.329,0.098 -20.545,1.582 -30.483,4.623 -1.194,0.366 -2.368,1.289 -4.256,0.407 z"
         id="path11"
         inkscape:connector-curvature="0"
         style="fill:#ffffff;fill-opacity:1" /><path
         d="m 200.241,235.199 c -10.089,-0.071 -18.145,-8.072 -18.207,-18.081 -0.063,-10.15 8.207,-18.308 18.546,-18.294 10.348,0.014 18.395,8.048 18.437,18.407 0.04,10.026 -8.336,18.042 -18.776,17.968 z"
         id="path13"
         inkscape:connector-curvature="0"
         style="fill:#ffffff;fill-opacity:1" /><path
         d="m 328.173,220.972 c 0.015,10.518 -7.805,18.302 -18.307,18.225 -10.252,-0.076 -17.934,-7.813 -17.972,-18.103 -0.038,-10.418 7.949,-18.367 18.358,-18.27 10.24,0.095 17.907,7.86 17.921,18.148 z"
         id="path15"
         inkscape:connector-curvature="0"
         style="fill:#ffffff;fill-opacity:1" /><path
         d="m 251.97,295.814 c 10.437,-0.068 18.389,7.438 18.599,17.555 0.206,9.951 -8.379,18.723 -18.267,18.667 -9.954,-0.057 -18.265,-8.25 -18.301,-18.042 -0.039,-10.011 7.972,-18.115 17.969,-18.18 z"
         id="path17"
         inkscape:connector-curvature="0"
         style="fill:#ffffff;fill-opacity:1" /></g></g><metadata
     id="metadata3342"><rdf:RDF><cc:Work
         rdf:about=""><dc:title /><dc:format>image/svg+xml</dc:format><dc:type
           rdf:resource="http://purl.org/dc/dcmitype/StillImage" /></cc:Work></rdf:RDF></metadata></svg>