<?xml version="1.0" encoding="UTF-8" standalone="no"?>
<svg class="img-fluid" xmlns="http://www.w3.org/2000/svg" style="transform: matrix(0.781469, 0, 0, 0.781469, 17.7346, 24.3204); transform-origin: 50% 50% 0px; cursor: move; max-height: 353.02px; transition: none 0s ease 0s;" width="384" height="384" viewBox="0 0 3840 3840"><g fill="rgb(34,0,211)"><g><path d="M0 1920 l0 -1920 1920 0 1920 0 0 1920 0 1920 -1920 0 -1920 0 0 -1920z m428 1341 c9 -5 44 -19 77 -31 116 -42 123 -46 134 -87 6 -21 11 -50 11 -65 0 -15 5 -30 11 -34 14 -9 4 -233 -11 -248 -6 -6 -10 -45 -10 -88 0 -71 -2 -78 -20 -78 -17 0 -20 -7 -20 -40 0 -22 2 -40 4 -40 30 0 120 -26 170 -50 36 -16 74 -30 86 -30 11 0 23 -7 26 -15 3 -8 24 -34 45 -57 42 -46 55 -88 45 -143 -6 -30 -11 -35 -34 -35 -20 0 -33 -8 -45 -29 -22 -37 -23 -101 -2 -101 27 0 16 -16 -27 -40 -37 -21 -53 -23 -156 -22 l-115 1 7 -225 c3 -124 9 -258 12 -298 5 -59 4 -75 -10 -88 -9 -9 -16 -30 -16 -47 0 -29 3 -31 35 -31 19 0 55 7 80 16 39 13 58 13 117 4 39 -6 83 -19 98 -30 17 -12 44 -20 68 -20 l41 0 -6 143 c-6 137 -5 147 22 232 33 108 61 152 129 203 71 54 88 62 140 62 l46 0 0 79 0 79 -37 6 c-21 3 -59 9 -85 12 l-48 7 0 -31 c0 -28 -2 -31 -22 -23 -13 4 -24 18 -26 30 -2 11 -10 21 -18 21 -8 0 -14 5 -14 10 0 6 -14 10 -31 10 -28 0 -31 3 -25 23 3 12 9 51 12 87 8 81 -13 150 -61 200 l-33 35 -6 170 c-17 448 -18 480 -30 487 -7 5 -1 16 18 34 28 26 30 27 125 21 53 -4 112 -12 131 -18 19 -7 41 -14 48 -15 10 -3 11 -34 6 -149 l-7 -145 32 0 c21 0 59 18 116 55 47 30 90 55 95 55 6 0 10 13 10 29 0 22 6 31 29 41 35 14 112 17 132 4 8 -5 44 -14 81 -20 37 -7 75 -19 83 -28 25 -25 97 -21 122 7 11 12 23 30 26 40 10 26 52 38 164 44 135 8 244 -19 310 -78 19 -16 37 -29 41 -29 4 0 25 -25 47 -55 34 -47 44 -55 72 -55 l33 0 0 53 c0 28 -7 70 -15 92 -8 22 -14 68 -15 103 0 61 1 63 23 57 12 -4 61 -29 108 -56 48 -27 90 -49 94 -49 5 0 23 -11 41 -25 24 -18 35 -36 39 -63 12 -73 47 -216 58 -234 11 -16 146 -68 179 -68 22 0 46 -40 58 -96 6 -26 14 -52 18 -58 12 -19 31 -80 27 -85 -3 -2 -47 12 -98 32 -54 22 -110 37 -134 37 l-41 0 0 -91 c0 -76 3 -94 19 -110 10 -10 28 -19 39 -19 10 0 32 -5 47 -11 15 -6 39 -16 53 -22 47 -19 65 -25 110 -37 25 -7 70 -21 100 -31 30 -10 73 -22 95 -27 48 -10 53 -22 54 -151 1 -75 -2 -98 -16 -113 -20 -22 -58 -23 -97 -3 -15 8 -41 15 -57 15 -28 0 -29 -2 -29 -48 0 -29 8 -64 21 -87 11 -22 23 -61 26 -86 5 -43 3 -48 -21 -64 -28 -19 -104 -18 -408 1 l-98 7 0 -61 c0 -38 5 -64 13 -69 11 -7 41 -12 190 -29 48 -6 58 -10 61 -28 3 -12 12 -52 21 -91 l16 -70 -33 -28 c-33 -28 -34 -28 -130 -21 l-98 7 0 -46 c0 -25 5 -49 10 -52 6 -3 10 -17 10 -29 0 -13 6 -28 13 -33 6 -5 63 -15 125 -21 97 -10 211 -37 262 -62 8 -4 16 -21 18 -39 2 -17 7 -31 13 -31 13 0 11 -77 -3 -116 -10 -28 -17 -33 -56 -38 -25 -3 -94 -6 -153 -6 l-109 0 0 -35 c0 -30 5 -37 38 -54 21 -11 65 -29 97 -40 72 -26 91 -42 100 -89 3 -20 9 -46 11 -58 5 -20 1 -22 -67 -26 -96 -7 -132 11 -196 100 -90 127 -159 199 -195 205 -127 21 -158 41 -158 104 0 19 -4 42 -9 52 -16 30 -43 331 -40 446 2 61 2 145 1 188 l-2 77 -33 0 c-27 0 -36 -6 -50 -32 -56 -108 -89 -163 -126 -206 -62 -75 -59 -112 23 -277 35 -72 73 -140 85 -152 12 -13 24 -37 27 -55 4 -18 13 -39 22 -45 27 -22 4 -28 -114 -32 -104 -3 -114 -2 -120 15 -3 11 -27 71 -54 134 -26 63 -55 140 -65 170 -10 30 -28 74 -42 97 -21 38 -28 43 -60 43 l-36 0 6 -102 c4 -57 14 -141 22 -188 9 -47 20 -114 25 -150 5 -36 11 -74 12 -85 2 -15 -2 -19 -17 -17 -102 17 -149 24 -203 28 -50 5 -66 10 -77 28 -17 25 -35 136 -35 214 l0 53 -37 -3 c-36 -3 -38 -5 -44 -43 -13 -83 -57 -146 -136 -189 -50 -29 -132 -35 -155 -13 -13 12 -32 22 -105 52 -24 10 -66 42 -94 72 -70 74 -92 73 -167 -8 -58 -63 -123 -100 -209 -120 -56 -12 -206 -15 -263 -5 -64 12 -145 51 -192 94 l-40 36 7 78 c3 43 3 83 -1 90 -5 7 -9 65 -9 128 -2 121 -19 472 -34 674 -6 77 -5 129 1 148 9 27 8 47 -7 123 -4 18 2 55 14 94 12 37 22 94 22 135 1 39 4 103 8 141 l6 70 48 -3 47 -4 0 41 c0 23 5 41 10 41 6 0 10 16 10 35 0 33 -2 35 -35 35 -32 0 -35 -3 -35 -29 0 -34 -18 -44 -44 -25 -17 12 -17 18 -6 76 26 133 28 167 23 290 -5 96 -3 131 7 143 14 17 42 19 68 6z"></path><path d="M1605 2812 l-170 -88 -3 -37 c-3 -32 0 -37 18 -37 11 0 28 -4 38 -9 9 -6 42 -22 72 -36 64 -31 151 -87 169 -109 8 -9 29 -16 47 -16 l34 0 0 84 c0 47 -4 88 -10 91 -18 11 -11 54 20 122 17 36 30 79 30 94 0 27 -3 29 -37 29 -28 0 -84 -24 -208 -88z"></path><path d="M2077 2837 c-43 -56 -58 -220 -32 -357 9 -49 54 -112 95 -132 24 -13 59 -18 111 -18 71 0 77 2 104 30 33 35 43 81 52 240 l5 106 -35 42 c-20 23 -38 50 -41 60 -11 32 -89 62 -165 62 -66 0 -70 -1 -94 -33z"></path><path d="M1273 2742 c-17 -11 -33 -58 -33 -98 0 -34 0 -34 45 -34 43 0 45 1 45 29 0 17 5 33 10 36 6 3 10 22 10 41 0 32 -2 34 -32 34 -18 0 -38 -4 -45 -8z"></path><path d="M2627 2468 c-4 -18 -10 -55 -14 -83 -19 -114 -112 -252 -220 -326 -36 -25 -51 -29 -112 -29 -65 0 -78 4 -158 47 -106 56 -182 111 -220 158 -24 30 -34 35 -71 35 -33 0 -44 -4 -50 -19 -13 -36 -122 -141 -174 -167 -28 -14 -81 -30 -117 -36 -89 -14 -101 -21 -101 -63 0 -30 3 -35 24 -35 36 0 107 -48 141 -95 68 -91 78 -110 109 -198 33 -92 33 -92 69 -95 l37 -3 0 41 c0 23 -5 50 -10 60 -6 10 -15 77 -21 149 -9 103 -8 133 2 143 9 11 36 13 103 10 107 -4 176 -27 176 -57 0 -11 7 -52 15 -90 8 -39 15 -93 15 -121 0 -43 4 -54 33 -82 24 -24 42 -32 67 -32 41 1 38 -3 138 166 40 67 84 132 97 144 l25 24 64 -22 c67 -23 136 -29 136 -12 0 6 9 10 20 10 11 0 20 6 20 13 0 8 9 22 19 31 22 20 57 18 236 -10 50 -8 138 -14 198 -14 l107 0 0 40 0 40 -72 0 c-40 1 -100 8 -133 16 -33 9 -71 18 -85 20 -98 19 -131 28 -176 45 l-51 20 -5 122 c-4 86 -1 138 8 175 8 29 14 66 14 82 0 28 -2 30 -39 30 -36 0 -39 -2 -44 -32z"></path><path d="M1240 2424 c-17 -43 -12 -112 9 -133 20 -20 118 -41 193 -41 53 0 58 8 58 78 0 93 -38 120 -173 121 -74 1 -78 0 -87 -25z"></path><path d="M1130 2395 c0 -45 0 -45 35 -45 35 0 35 0 35 45 0 45 0 45 -35 45 -35 0 -35 0 -35 -45z"></path><path d="M630 2300 c0 -56 2 -61 27 -71 15 -5 45 -9 67 -7 40 3 41 4 44 42 5 56 -35 96 -95 96 l-43 0 0 -60z"></path><path d="M550 2205 c0 -33 2 -35 35 -35 33 0 35 2 35 35 0 33 -2 35 -35 35 -33 0 -35 -2 -35 -35z"></path><path d="M2720 2145 l0 -45 45 0 45 0 0 45 0 45 -45 0 -45 0 0 -45z"></path><path d="M1287 1762 c-30 -31 -33 -67 -16 -157 5 -27 13 -98 18 -158 5 -59 17 -121 25 -139 9 -17 16 -37 16 -45 0 -7 12 -31 26 -53 22 -33 33 -40 58 -40 39 0 58 29 99 150 26 77 28 95 25 190 -3 72 -9 113 -20 130 -9 14 -18 37 -22 52 -3 15 -20 43 -37 63 -29 32 -35 35 -88 35 -50 0 -61 -4 -84 -28z"></path><path d="M657 1203 c-4 -3 -7 -39 -7 -78 0 -86 7 -94 82 -102 48 -5 57 -2 86 22 28 23 32 33 32 75 0 47 -1 49 -43 69 -42 20 -136 29 -150 14z"></path><path d="M1710 1165 l0 -45 40 0 40 0 0 45 0 45 -40 0 -40 0 0 -45z"></path></g></g><g fill="rgb(0,0,0)"><g><path d="M339 3292 c-18 -13 -20 -24 -18 -180 1 -103 -2 -181 -9 -202 -6 -19 -15 -68 -20 -107 -8 -68 -7 -74 12 -87 16 -10 18 -16 9 -27 -7 -8 -14 -71 -18 -149 -4 -83 -14 -160 -25 -200 -30 -105 -34 -145 -16 -173 13 -19 14 -30 6 -54 -8 -21 -6 -96 5 -263 8 -129 15 -275 15 -324 0 -49 5 -118 11 -153 7 -42 8 -72 1 -91 -6 -18 -6 -35 0 -45 5 -10 5 -17 0 -17 -11 0 -3 -90 8 -105 4 -5 4 -32 0 -60 -14 -81 -12 -93 25 -134 74 -82 205 -123 372 -117 187 7 278 40 365 135 l57 61 50 -54 c28 -29 70 -61 94 -71 75 -31 92 -40 110 -57 27 -24 150 -19 196 7 87 50 151 136 151 204 0 17 5 33 10 36 6 4 10 -14 10 -47 0 -78 18 -189 35 -214 11 -18 27 -23 77 -28 124 -10 187 -22 206 -39 41 -38 88 -3 79 60 -17 124 -27 187 -41 261 -8 46 -18 118 -21 160 l-7 77 21 -25 c20 -24 71 -144 71 -166 0 -5 23 -61 50 -124 28 -63 50 -119 50 -126 0 -27 28 -31 162 -24 113 5 141 10 158 25 19 18 20 18 20 -2 0 -48 39 -70 158 -90 36 -6 105 -78 196 -206 38 -53 59 -73 100 -92 56 -27 100 -32 112 -14 4 7 23 9 53 5 71 -9 74 -4 55 96 -18 99 -27 110 -109 139 -60 21 -135 56 -135 63 0 3 50 5 111 5 129 1 239 17 239 35 0 22 -13 26 -27 8 -13 -15 -13 -15 -4 5 15 29 14 173 0 173 -6 0 -8 8 -4 19 7 24 -24 63 -56 66 -13 2 -44 10 -69 19 -25 9 -97 21 -160 28 -63 6 -121 16 -127 21 -7 5 -13 20 -13 33 0 12 -4 26 -10 29 -5 3 -10 12 -10 20 0 11 19 12 95 8 92 -6 95 -5 131 22 34 26 36 30 31 74 -6 66 -36 204 -46 214 -5 5 -17 3 -28 -4 -16 -9 -30 -9 -66 -1 -25 7 -63 12 -84 12 -51 0 -67 13 -69 51 l-2 31 57 -6 c31 -3 139 -9 241 -12 181 -6 186 -6 213 16 17 13 26 28 23 39 -3 9 -6 41 -7 71 -2 34 -9 64 -21 80 -10 14 -21 40 -24 57 l-6 33 28 -14 c16 -8 49 -17 74 -21 37 -5 50 -3 73 15 27 21 27 22 27 143 0 147 -12 201 -42 194 -12 -3 -53 4 -92 17 -39 13 -91 29 -116 36 -25 7 -55 16 -67 21 -13 5 -33 13 -45 18 -13 5 -36 14 -51 20 -15 6 -36 11 -46 11 -39 0 -52 23 -54 93 -1 43 2 67 9 67 6 0 55 -18 109 -40 110 -45 135 -48 158 -22 16 17 16 21 -3 60 -11 22 -20 48 -20 56 0 8 -4 17 -9 20 -5 4 -14 29 -20 57 -14 65 -45 109 -74 107 -36 -2 -151 41 -164 60 -11 18 -46 161 -58 234 -4 27 -15 45 -39 63 -18 14 -36 25 -41 25 -4 0 -46 22 -94 49 -106 60 -164 79 -186 61 -19 -16 -13 -156 10 -224 9 -26 15 -56 13 -67 -2 -16 -11 -9 -43 35 -22 31 -43 56 -47 56 -4 0 -22 13 -41 30 -37 32 -64 45 -147 67 -68 18 -299 16 -346 -3 -30 -12 -65 -44 -48 -44 4 0 -3 -11 -16 -25 -27 -29 -42 -31 -65 -9 -8 9 -46 21 -83 28 -37 6 -71 14 -77 17 -5 3 -32 12 -58 19 -36 10 -51 10 -60 1 -6 -6 -22 -11 -35 -11 -47 0 -86 -32 -76 -62 3 -10 1 -18 -5 -18 -6 0 -49 -25 -95 -55 l-85 -55 6 93 c14 180 8 210 -40 214 -12 1 -47 7 -77 12 -30 6 -93 12 -140 13 -77 2 -88 0 -112 -22 -22 -18 -28 -33 -28 -62 0 -21 4 -38 9 -38 5 0 12 -71 15 -157 3 -87 8 -234 12 -328 l6 -170 33 -35 c51 -53 68 -115 55 -193 -7 -35 -22 -82 -35 -103 -27 -43 -33 -32 -11 20 49 117 41 204 -25 276 -21 23 -39 46 -39 50 0 4 -27 33 -60 63 -60 56 -102 74 -140 62 -36 -12 -50 11 -50 84 0 37 5 72 11 78 16 16 25 298 10 307 -6 4 -11 19 -11 34 0 15 -5 44 -11 65 -11 41 -18 45 -134 87 -33 12 -69 26 -80 30 -36 16 -95 17 -116 2z m166 -156 c38 -13 40 -16 45 -65 3 -28 2 -138 -3 -243 -4 -106 -6 -222 -5 -258 3 -63 4 -65 38 -82 25 -13 30 -18 15 -18 -11 0 -29 -13 -40 -28 -22 -30 -27 -120 -12 -219 8 -53 8 -53 -19 -53 -15 0 -49 10 -76 22 -41 18 -48 26 -48 49 0 15 -4 30 -10 34 -6 3 -5 16 2 33 6 15 14 86 18 157 4 78 18 184 35 265 25 122 27 149 22 278 -3 78 -4 142 -3 142 0 0 19 -7 41 -14z m655 -33 c2 -2 4 -66 3 -141 -2 -169 0 -172 96 -172 85 1 142 14 162 38 8 11 50 38 93 62 51 28 81 51 87 68 8 22 14 24 47 18 20 -3 47 -6 60 -6 34 0 18 -17 -46 -49 -32 -16 -102 -52 -157 -80 -55 -28 -109 -51 -120 -51 -11 -1 -31 -7 -45 -15 -14 -8 -39 -14 -56 -15 -46 0 -103 -47 -104 -86 0 -47 21 -83 54 -92 43 -11 45 -32 4 -32 -52 -1 -87 -38 -98 -107 -13 -80 -12 -175 3 -193 7 -8 31 -26 55 -38 38 -21 57 -24 170 -25 109 -2 133 1 167 18 51 26 65 55 65 139 0 67 -1 70 -39 107 -39 36 -97 61 -173 75 -27 4 -38 11 -38 24 0 17 4 17 64 -5 134 -49 216 -99 216 -132 0 -7 18 -32 40 -54 28 -29 40 -50 40 -71 0 -36 -16 -68 -35 -68 -7 0 -16 -8 -19 -17 -7 -21 -75 -63 -131 -80 -70 -22 -264 -10 -273 17 -2 6 -12 10 -23 10 -36 0 -129 48 -138 72 -5 13 -5 78 -1 149 11 164 5 389 -15 514 -8 55 -15 131 -15 169 l0 68 48 -7 c26 -4 49 -9 52 -12z m1638 -78 c23 -14 33 -29 37 -55 7 -39 16 -79 38 -160 9 -30 17 -68 19 -85 3 -28 8 -31 83 -52 44 -12 90 -23 101 -23 23 0 51 -26 41 -37 -4 -3 -33 2 -65 11 -84 23 -116 21 -148 -11 -24 -24 -26 -31 -20 -77 3 -28 10 -97 15 -154 12 -121 19 -131 121 -158 78 -20 311 -91 360 -109 34 -12 35 -15 38 -69 2 -31 2 -56 0 -56 -13 1 -106 33 -149 52 -50 22 -101 39 -269 88 -145 42 -175 53 -186 64 -6 6 -18 105 -28 226 -25 335 -46 572 -52 608 -7 36 0 36 64 -3z m-518 -8 c76 -16 121 -46 168 -109 56 -74 77 -154 88 -326 8 -112 -4 -185 -46 -276 -36 -81 -137 -205 -167 -205 -13 -1 -23 4 -23 10 0 8 -19 10 -57 7 -52 -5 -62 -2 -103 25 -153 105 -208 185 -235 339 -25 138 -19 229 24 367 24 77 95 143 179 166 59 17 102 17 172 2z m-491 -212 c-30 -66 -41 -167 -19 -180 6 -3 10 -32 10 -62 l0 -57 -27 25 c-44 39 -87 66 -155 99 -35 17 -71 35 -80 41 -10 5 -28 9 -40 9 -14 0 -19 3 -12 10 11 11 335 179 346 180 4 0 -6 -29 -23 -65z m-482 -106 c-8 -11 -13 -29 -10 -40 4 -13 0 -19 -12 -19 -12 0 -15 5 -11 16 3 9 6 19 6 24 0 9 28 40 36 40 3 0 -1 -9 -9 -21z m-641 -115 c17 -14 17 -15 1 -10 -10 3 -23 6 -28 6 -5 0 -9 5 -9 10 0 14 13 12 36 -6z m140 -35 c22 -10 47 -25 54 -34 14 -17 17 -18 -73 23 -27 12 -53 22 -58 22 -5 0 -9 5 -9 11 0 12 25 6 86 -22z m1873 -86 c0 -5 -4 -17 -9 -28 -8 -18 -9 -17 -9 8 -1 15 4 27 9 27 6 0 10 -3 9 -7z m-1255 -64 c33 -16 51 -57 42 -96 -7 -24 -9 -25 -64 -18 -121 15 -157 45 -133 109 11 27 13 28 69 24 31 -2 70 -11 86 -19z m1227 -36 c-9 -16 -10 -16 -11 -1 0 9 3 25 7 35 7 16 8 17 11 1 2 -10 -1 -25 -7 -35z m-1775 -60 c19 -43 19 -75 3 -115 -9 -22 -18 -28 -41 -28 l-30 0 23 19 c21 17 24 28 24 90 0 39 1 71 2 71 2 0 10 -17 19 -37z m1783 -154 l1 -87 53 -20 c46 -18 79 -27 177 -46 14 -2 52 -11 85 -20 33 -8 93 -15 133 -16 41 0 72 -4 72 -10 0 -15 -142 -12 -245 5 -148 24 -272 30 -291 14 -9 -7 -22 -14 -28 -14 -28 -2 -46 -18 -41 -36 4 -11 3 -19 -1 -19 -12 0 -127 40 -148 51 -32 18 -84 -36 -166 -172 -41 -68 -83 -135 -92 -149 l-18 -24 -35 34 c-31 30 -35 40 -35 84 0 28 -7 81 -14 118 -8 36 -12 75 -9 86 4 16 -4 24 -44 42 -39 17 -71 22 -167 25 -164 4 -156 14 -140 -188 8 -87 18 -166 24 -177 13 -23 13 -48 1 -34 -5 5 -22 48 -39 96 -30 84 -40 102 -107 193 -34 48 -105 95 -143 95 -25 1 -26 1 -8 15 10 7 44 17 75 20 87 10 169 53 237 124 33 34 62 71 66 82 11 28 30 23 61 -16 38 -47 114 -102 220 -158 87 -47 87 -47 188 -47 94 0 103 2 142 29 73 50 146 137 183 216 19 40 35 80 35 87 4 32 17 -106 18 -183z m-1944 151 c35 -37 24 -58 -22 -43 -22 7 -29 17 -31 41 -4 41 15 42 53 2z m2065 -155 c0 -8 -7 -15 -15 -15 -8 0 -15 7 -15 15 0 8 7 15 15 15 8 0 15 -7 15 -15z m-1996 -10 c-10 -8 -35 -14 -54 -14 l-35 1 38 8 c20 4 40 10 44 13 3 4 11 7 17 7 5 0 1 -7 -10 -15z m296 -25 c0 -5 7 -10 15 -10 8 0 15 -4 15 -9 0 -4 -16 -3 -35 3 -38 12 -46 26 -15 26 11 0 20 -4 20 -10z m213 -27 c20 -3 37 -10 37 -14 0 -12 -67 -11 -91 1 -24 13 -26 35 -1 25 9 -4 34 -9 55 -12z m-213 -22 c30 -6 82 -21 115 -35 33 -14 77 -26 98 -26 20 0 37 -4 37 -10 0 -5 -21 -10 -46 -10 -52 0 -69 -8 -140 -62 -68 -51 -96 -95 -129 -203 -25 -78 -28 -104 -27 -212 1 -111 -5 -142 -23 -113 -3 6 -14 10 -23 10 -13 0 -12 -5 8 -20 14 -11 31 -20 38 -20 15 0 16 -20 1 -20 -6 0 -23 8 -37 18 -15 10 -43 23 -62 29 -45 13 -174 17 -197 5 -10 -5 -31 -12 -47 -16 -26 -6 -27 -5 -13 9 9 8 23 15 31 15 20 0 20 9 2 29 -11 12 -17 71 -25 226 -6 116 -11 239 -10 275 l1 65 112 1 c97 0 117 3 152 23 23 13 47 32 55 43 11 14 21 18 44 14 17 -3 55 -10 85 -15z m-621 -58 l51 -16 0 -141 c1 -196 17 -455 30 -494 8 -20 21 -34 36 -38 l23 -6 -21 -28 c-18 -25 -20 -38 -16 -136 3 -63 11 -127 20 -152 19 -51 18 -51 -80 3 -61 34 -72 43 -66 60 23 73 10 328 -18 359 -4 6 -8 78 -8 161 0 83 -4 186 -9 230 -5 44 -12 110 -15 148 -7 77 -8 77 73 50z m998 -159 c20 -17 39 -36 41 -43 2 -7 -7 -1 -22 13 -21 22 -34 26 -79 26 -86 0 -115 -10 -165 -55 l-47 -43 -3 -95 c-2 -55 1 -116 8 -144 7 -26 14 -82 17 -123 5 -104 6 -108 64 -186 80 -109 102 -124 177 -124 70 0 93 22 127 122 25 71 30 104 34 228 l6 145 29 -88 c26 -79 28 -95 23 -179 -4 -58 -11 -96 -19 -103 -16 -12 -38 -60 -38 -83 0 -32 -20 -88 -38 -108 -10 -11 -26 -31 -36 -46 -20 -31 -62 -43 -113 -33 -23 4 -37 13 -40 26 -4 13 -14 19 -33 19 -27 0 -30 3 -134 124 -31 36 -56 111 -56 165 0 29 -4 41 -15 41 -23 0 -38 76 -33 178 3 75 7 96 21 103 19 11 24 78 7 95 -8 8 -6 15 5 24 8 7 15 28 15 50 0 31 6 42 42 70 85 69 187 78 255 24z m484 -51 c0 -43 4 -103 8 -133 7 -49 13 -59 62 -103 147 -133 223 -142 263 -30 21 59 74 164 90 178 16 15 33 44 52 88 15 35 19 38 48 31 43 -9 46 -12 46 -42 -1 -26 -59 -102 -79 -102 -8 0 -101 -135 -153 -223 -23 -40 -28 -59 -28 -117 0 -66 3 -74 80 -224 44 -85 80 -160 80 -166 0 -5 -13 -10 -30 -10 -23 0 -33 7 -45 30 -8 16 -15 37 -15 47 0 10 -20 77 -44 150 -33 97 -58 152 -96 207 l-51 76 -62 0 c-92 0 -101 -10 -105 -112 -2 -46 1 -139 8 -208 6 -69 14 -157 17 -196 l5 -71 -50 10 -50 11 -11 60 c-11 64 -29 342 -35 536 -2 63 -6 140 -10 170 -3 30 -9 92 -13 138 l-8 82 63 0 62 0 1 -77z m1012 46 c26 -5 87 -9 135 -10 48 0 102 -5 121 -12 30 -10 36 -19 47 -60 l12 -49 -26 8 c-31 8 -109 14 -262 20 -58 2 -131 6 -162 10 -52 5 -59 3 -82 -19 -34 -35 -41 -95 -21 -192 9 -44 21 -83 27 -86 12 -7 64 -14 189 -25 42 -3 81 -9 86 -13 6 -3 13 -23 17 -44 l7 -37 -84 6 c-113 9 -132 3 -158 -48 -17 -34 -20 -52 -15 -102 3 -34 6 -82 6 -107 -1 -44 1 -47 31 -58 18 -6 68 -11 113 -11 45 0 110 -5 145 -11 68 -11 171 -55 171 -73 0 -6 3 -21 6 -33 l6 -23 -148 0 c-139 0 -372 15 -382 25 -2 2 -8 37 -12 78 -5 41 -18 123 -30 183 -21 107 -25 240 -21 611 l1 92 118 -5 c64 -3 139 -10 165 -15z m-1397 -113 l15 -31 -21 25 c-11 14 -26 34 -32 45 -10 18 -10 19 6 6 10 -8 24 -28 32 -45z m-127 -1 c17 -20 34 -48 37 -63 4 -15 13 -38 21 -50 8 -13 17 -57 20 -97 5 -63 2 -86 -23 -162 -16 -48 -38 -103 -50 -121 l-21 -32 -27 41 c-15 22 -25 43 -22 46 2 3 -4 22 -15 44 -14 26 -23 71 -29 141 -4 57 -13 132 -20 167 -11 63 -10 64 16 92 39 40 74 38 113 -6z m1121 -167 c1 -40 1 -80 1 -88 -11 -113 18 -511 40 -552 12 -23 0 -23 -27 0 -12 9 -24 32 -28 50 -3 18 -15 42 -27 55 -27 28 -149 274 -149 300 0 11 19 41 41 69 37 43 70 98 126 206 9 17 17 32 18 32 1 0 3 -33 5 -72z m-1719 -266 c96 -27 159 -66 159 -99 0 -14 5 -43 12 -65 9 -29 9 -41 0 -50 -7 -7 -12 -24 -12 -38 0 -59 -97 -108 -239 -121 -98 -9 -105 -8 -123 11 -19 20 -19 20 57 20 110 0 156 14 209 65 35 35 46 52 51 88 4 25 3 58 -2 74 -14 43 -93 90 -164 98 -56 7 -74 17 -46 28 20 9 30 8 98 -11z m-54 -133 c52 -25 55 -47 12 -83 -31 -26 -66 -28 -96 -3 -13 10 -18 89 -6 100 12 13 46 7 90 -14z m983 6 c0 -8 -4 -15 -10 -15 -5 0 -10 7 -10 15 0 8 5 15 10 15 6 0 10 -7 10 -15z m1374 -570 c20 -8 36 -17 36 -19 0 -3 3 -11 6 -20 5 -12 0 -16 -18 -16 -32 0 -68 27 -68 51 0 23 -1 23 44 4z"></path><path d="M2080 2924 c-51 -28 -72 -50 -101 -114 -18 -37 -22 -71 -26 -192 -4 -91 -2 -153 4 -160 6 -7 13 -25 17 -40 3 -14 26 -51 51 -82 35 -43 55 -58 88 -67 54 -14 234 -7 263 11 30 18 81 97 100 153 12 37 15 77 12 185 -4 155 -15 186 -85 255 -80 77 -232 101 -323 51z m175 -106 c25 -12 47 -30 51 -40 3 -10 21 -37 41 -60 35 -43 35 -43 29 -118 -11 -137 -21 -178 -50 -209 -25 -26 -34 -29 -85 -27 -35 1 -68 8 -84 19 -74 48 -110 176 -87 315 16 100 46 142 101 142 21 0 59 -10 84 -22z"></path><path d="M726 1444 c-9 -22 -2 -27 24 -19 12 4 19 12 17 18 -6 19 -34 20 -41 1z"></path></g></g><g fill="rgb(249,251,38)"><g><path d="M423 3194 c-3 -8 0 -56 6 -107 6 -51 9 -123 7 -162 -2 -38 -4 -80 -5 -92 0 -13 -7 -23 -16 -23 -17 0 -19 -12 -5 -26 6 -6 4 -33 -6 -79 -9 -39 -20 -131 -24 -205 -5 -92 -13 -150 -26 -182 -17 -45 -17 -48 0 -67 17 -18 17 -20 0 -29 -15 -9 -16 -12 -3 -24 8 -8 30 -20 49 -28 19 -8 46 -20 59 -27 14 -6 28 -10 33 -7 4 3 27 -2 50 -10 24 -8 55 -12 70 -9 14 3 34 0 45 -6 15 -9 13 -10 -14 -11 -18 0 -33 -5 -33 -10 0 -7 33 -9 89 -7 85 3 109 11 134 42 5 6 5 0 2 -12 -5 -19 -2 -23 14 -23 27 0 67 70 76 133 8 53 -8 104 -51 163 -25 34 -110 79 -213 113 -35 11 -70 26 -77 32 -14 12 -14 61 1 457 5 135 -1 172 -30 172 -8 0 -40 11 -70 25 -48 21 -57 22 -62 9z m245 -774 c22 -11 46 -20 52 -20 20 0 81 -52 96 -83 26 -50 11 -93 -44 -128 -49 -32 -53 -32 -144 -8 -37 10 -48 17 -49 33 -1 12 -4 37 -6 56 -11 74 -8 115 12 142 24 33 30 34 83 8z"></path><path d="M591 2243 c0 -4 4 -17 9 -28 8 -19 9 -19 9 2 1 12 -3 25 -9 28 -5 3 -10 3 -9 -2z"></path><path d="M1026 3063 c3 -54 12 -147 21 -208 16 -114 20 -401 8 -550 -9 -108 0 -130 70 -161 31 -13 64 -24 74 -24 11 0 21 -4 23 -10 9 -28 258 -41 333 -17 55 17 124 59 130 78 3 9 14 19 24 22 21 5 58 100 41 105 -5 2 -10 14 -10 27 0 13 -17 40 -40 64 -22 22 -40 47 -40 54 0 19 -59 67 -108 89 -87 39 -178 68 -212 68 -60 0 -104 17 -117 47 -7 14 -12 27 -10 28 1 0 17 13 35 28 20 16 46 27 65 27 18 1 43 7 57 15 14 8 34 14 45 15 20 0 235 106 353 174 22 13 51 45 52 57 0 3 -39 9 -87 13 -153 13 -146 14 -160 -16 -8 -16 -41 -42 -88 -67 -41 -23 -85 -52 -99 -66 -14 -14 -35 -26 -48 -26 -149 -9 -153 -6 -140 112 5 47 5 94 1 107 -5 13 -9 38 -9 56 l0 34 -75 11 c-42 6 -80 11 -85 11 -6 0 -7 -40 -4 -97z m327 -567 c139 -26 217 -81 217 -154 -1 -93 -57 -127 -203 -124 -81 1 -106 5 -140 24 -57 31 -66 45 -67 103 0 100 46 183 95 170 11 -3 55 -12 98 -19z"></path><path d="M2680 3102 c0 -10 4 -22 9 -27 5 -6 11 -30 14 -55 8 -75 36 -403 53 -630 10 -121 22 -220 28 -226 11 -11 41 -22 186 -64 171 -50 219 -66 275 -91 51 -22 174 -59 199 -59 3 0 5 41 4 91 l-3 91 -35 13 c-49 18 -282 89 -360 109 -103 27 -109 36 -120 163 -5 59 -11 115 -15 124 -4 11 3 26 20 43 14 14 27 26 29 26 21 0 138 -41 189 -65 33 -17 34 -11 8 64 -10 30 -24 58 -32 62 -8 4 -48 15 -89 24 -111 27 -120 31 -120 59 0 25 -25 129 -34 144 -3 5 -10 37 -15 71 -11 70 -16 75 -107 121 -71 35 -84 37 -84 12z"></path><path d="M2078 3045 c-55 -15 -118 -58 -147 -101 -64 -93 -89 -309 -56 -492 27 -155 85 -238 235 -338 65 -42 106 -56 121 -38 6 8 19 14 28 14 14 0 14 -2 1 -10 -11 -7 -7 -10 20 -12 138 -7 134 -9 249 122 17 19 36 51 42 70 6 19 17 41 23 49 8 11 8 13 -2 7 -7 -4 -22 -26 -33 -49 -12 -23 -34 -56 -49 -74 -15 -17 -29 -35 -31 -40 -6 -14 -79 -73 -90 -73 -6 0 15 30 47 67 64 76 107 163 125 254 20 101 3 329 -33 449 -15 49 -83 138 -126 163 -73 43 -228 59 -324 32z m202 -145 c61 -22 121 -76 153 -135 29 -55 37 -232 13 -302 -19 -55 -70 -135 -99 -152 -28 -18 -155 -25 -204 -12 -33 9 -53 24 -88 67 -25 31 -48 68 -51 82 -4 15 -11 33 -17 40 -6 8 -8 57 -4 130 7 161 38 228 127 276 55 31 99 32 170 6z"></path><path d="M390 2105 c0 -2 7 -11 16 -19 24 -24 7 -40 -23 -21 -14 9 -27 14 -31 10 -3 -3 0 -79 8 -168 8 -89 15 -240 17 -336 2 -96 7 -179 11 -185 5 -6 15 -43 22 -82 12 -66 11 -92 -5 -244 l-7 -55 74 -40 c40 -22 84 -43 96 -47 13 -4 29 -14 36 -24 11 -15 26 -16 129 -10 125 7 128 8 197 38 48 21 122 94 146 143 8 17 9 21 2 11 -48 -72 -77 -81 -38 -12 18 33 18 37 3 67 -9 17 -18 51 -21 76 -4 39 -9 46 -50 70 -51 30 -161 63 -211 63 -19 0 -49 -5 -66 -11 -45 -16 -110 12 -125 54 -14 41 -27 266 -29 513 l-1 122 -46 13 c-31 9 -51 23 -62 41 -14 23 -42 46 -42 33z m293 -832 c4 -4 -5 -19 -20 -35 -31 -32 -18 -38 20 -8 35 28 107 19 171 -21 78 -49 80 -96 8 -165 -50 -48 -112 -68 -192 -62 -43 3 -46 5 -59 43 -7 22 -16 76 -18 120 -5 71 -3 83 17 108 20 25 58 36 73 20z"></path><path d="M1945 1910 c-5 -7 -35 -9 -87 -5 l-79 5 6 -97 c3 -54 9 -109 12 -123 7 -29 10 -79 16 -257 3 -73 10 -196 16 -275 5 -79 9 -150 9 -158 -1 -8 4 -46 12 -83 8 -46 18 -71 31 -77 22 -13 32 -13 24 -1 -3 6 25 1 62 -9 37 -10 68 -18 69 -17 1 1 -2 27 -6 57 -19 125 -34 302 -35 408 0 127 7 142 72 142 29 0 37 -7 84 -76 36 -53 62 -110 89 -191 22 -64 37 -120 34 -125 -3 -4 -1 -8 5 -8 6 0 8 -6 5 -14 -3 -8 4 -32 16 -55 20 -40 22 -41 73 -41 28 0 62 -3 75 -6 16 -5 22 -2 22 9 0 8 -43 99 -95 203 -108 213 -112 234 -67 311 57 96 145 223 156 224 6 0 25 17 42 37 24 29 33 50 37 94 l7 57 -38 10 c-104 26 -100 27 -122 -21 -25 -52 -41 -79 -56 -93 -16 -14 -69 -119 -90 -178 -9 -26 -26 -54 -37 -62 -18 -13 -25 -12 -56 6 -20 11 -65 46 -100 78 -60 53 -65 61 -72 112 -4 30 -8 91 -8 136 -1 76 -11 108 -26 83z"></path><path d="M1249 1896 c-77 -27 -164 -125 -130 -145 9 -6 8 -11 -4 -21 -18 -15 -20 -71 -2 -89 10 -10 8 -15 -7 -26 -24 -18 -31 -57 -29 -170 1 -104 17 -175 38 -175 8 0 15 -8 15 -17 0 -15 -2 -16 -10 -3 -19 29 -11 -33 8 -70 11 -19 22 -46 25 -60 4 -14 18 -38 32 -55 108 -125 129 -145 139 -135 15 15 29 12 22 -5 -4 -11 9 -19 52 -31 47 -14 65 -15 102 -5 25 6 51 20 58 31 8 10 25 31 38 47 24 27 44 80 44 115 0 23 22 71 37 83 16 12 33 215 23 259 -11 45 -100 307 -113 331 -22 42 -99 124 -131 139 -41 19 -156 21 -207 2z m199 -113 c51 -51 108 -147 120 -201 37 -164 -13 -429 -89 -471 -50 -28 -96 0 -179 113 -60 82 -67 105 -51 165 6 24 8 47 3 50 -19 14 -36 98 -36 183 l-1 90 48 43 c48 44 65 51 125 54 23 1 40 -7 60 -26z"></path><path d="M2638 1753 c-10 -307 -2 -509 26 -652 14 -73 26 -148 26 -165 0 -65 6 -71 78 -83 37 -6 135 -12 217 -14 323 -5 305 -7 305 35 0 76 -9 92 -64 119 -63 31 -152 47 -262 47 -45 0 -95 5 -112 11 -27 9 -31 14 -26 36 4 14 1 49 -6 77 -11 48 -10 56 8 93 12 22 28 43 37 47 9 3 61 3 114 0 l98 -7 -9 69 c-5 38 -11 71 -14 73 -7 7 -105 19 -161 20 -28 1 -55 6 -59 12 -3 6 -16 8 -28 5 -34 -8 -44 5 -59 78 -17 80 -12 112 20 144 19 19 30 23 51 17 42 -11 181 -21 175 -12 -6 10 3 9 72 -7 33 -8 65 -11 73 -7 7 4 45 2 85 -5 40 -7 75 -10 78 -6 6 6 -13 118 -25 149 -8 19 -75 33 -166 33 -47 0 -103 4 -125 9 -22 5 -108 12 -191 16 l-151 6 -5 -138z"></path><path d="M2920 712 c0 -5 31 -37 70 -73 38 -35 70 -72 70 -81 0 -28 40 -48 97 -48 l53 0 0 38 c0 21 -6 45 -12 54 -14 17 -117 58 -146 58 -10 0 -27 8 -38 18 -11 10 -35 24 -53 30 -40 14 -41 14 -41 4z"></path></g></g></svg>
